# xmcd
#
# Track frame offsets: 
#        150
#        13785
#        27210
#        41632
#        54412
#        67932
#        81707
#        95225
#        108007
#        119895
#        133052
#        145680
#        159452
#        172070
#        185075
#        197297
#        210387
#        224127
#        238017
#        251587
#        264752
#        278345
#        291262
#
# Disc length: 4058 seconds
#
# Revision: 4
# Processed by: cddbd v1.5.2PL0 Copyright (c) Steve Scherf et al.
# Submitted via: ExactAudioCopy v0.99pb5
#
DISCID=5a0fd817
DTITLE=King Oliver - Vocalion and Brunswick Recordings, Vol. 1
DYEAR=1999
DGENRE=Jazz
TTITLE0=Too Bad
TTITLE1=Too Bad
TTITLE2=Snag It
TTITLE3=Snag It
TTITLE4=Georgia Man
TTITLE5=Deep Henderson
TTITLE6=Jackass Blues
TTITLE7=Home Town Blues
TTITLE8=Sorrow Valley Blues
TTITLE9=Sugar Foot Stomp
TTITLE10=Wa Wa Wa
TTITLE11=Tack Annie
TTITLE12=Tack Annie
TTITLE13=Someday, Sweetheart
TTITLE14=Dead Man Blues
TTITLE15=New Wang Wang Blues
TTITLE16=Snag It
TTITLE17=Snag It
TTITLE18=Doctor Jazz
TTITLE19=Showboat Shuffle
TTITLE20=Every Tub
TTITLE21=Willie The Weeper
TTITLE22=When I Take My Sugar To Tea
EXTD=YEAR: 1926
EXTT0=
EXTT1=
EXTT2=
EXTT3=
EXTT4=
EXTT5=
EXTT6=
EXTT7=
EXTT8=
EXTT9=
EXTT10=
EXTT11=
EXTT12=
EXTT13=
EXTT14=
EXTT15=
EXTT16=
EXTT17=
EXTT18=
EXTT19=
EXTT20=
EXTT21=
EXTT22=
PLAYORDER=
